<svg width="24" height="24" viewBox="0 0 24 24" fill="none" xmlns="http://www.w3.org/2000/svg">
    <g id="tabler-icon-forms">
        <path id="Vector"
              d="M12 3C11.2044 3 10.4413 3.31607 9.87868 3.87868C9.31607 4.44129 9 5.20435 9 6M9 6V18M9 6C9 5.20435 8.68393 4.44129 8.12132 3.87868C7.55871 3.31607 6.79565 3 6 3M9 18C9 18.7956 9.31607 19.5587 9.87868 20.1213C10.4413 20.6839 11.2044 21 12 21M9 18C9 18.7956 8.68393 19.5587 8.12132 20.1213C7.55871 20.6839 6.79565 21 6 21M13 7H20C20.2652 7 20.5196 7.10536 20.7071 7.29289C20.8946 7.48043 21 7.73478 21 8V16C21 16.2652 20.8946 16.5196 20.7071 16.7071C20.5196 16.8946 20.2652 17 20 17H13M5 7H4C3.73478 7 3.48043 7.10536 3.29289 7.29289C3.10536 7.48043 3 7.73478 3 8V16C3 16.2652 3.10536 16.5196 3.29289 16.7071C3.48043 16.8946 3.73478 17 4 17H5M17 12H17.01M13 12H13.01"
              stroke="currentColor" stroke-width="2" stroke-linecap="round" stroke-linejoin="round"/>
    </g>
</svg>
